# xmcd
#
# Track frame offsets:
#	150
#	17978
#	42164
#	72644
#	90902
#	113719
#	132170
#	148420
#	167553
#	186545
#	204147
#	220095
#	249662
#	279027
#	304478
#	328838
#
# Disc length: 4803 seconds
#
# Revision: 0
# Processed by: cddbd v1.5.2PL0 Copyright (c) Steve Scherf et al.
# Submitted via: EasyCDDAExtractor 8.2.3.1
#
DISCID=ef12c110
DTITLE=Various Artist - Akella Presents - Modern Electric Blues - vol.14  CD2
DYEAR=2010
DGENRE=Blues
TTITLE0=GEORGE TERRY - That Ain't You
TTITLE1=COLIN JAMES - Freedom
TTITLE2=INNES SIBUN - Sandy
TTITLE3=GEOFF ACHISON - Rule The World
TTITLE4=COCO MONTOYA - Good Days, Bad Days
TTITLE5=MICHAEL POWERS - White Lightning
TTITLE6=JAMES SOLBERG - Let's Straighten It Out
TTITLE7=RICK VITO -  Little Sheba
TTITLE8=GEORGE THOROGOOD - Moving
TTITLE9=IKE TURNER - Big Fat Mama
TTITLE10=CHARLIE MUSSELWHITE - Church Is Out
TTITLE11=GARY EDMONDS and The BRIDGE -  When Push Comes To Shove
TTITLE12=ALVIN ''Youngblood'' HART - Million Miles
TTITLE13=JOHN MAYALL - Help Me Through The Day
TTITLE14=LARRY O'MOAN - I Wanna Drink A River
TTITLE15=PAUL CAMILLERI - Poor Heart
EXTD=
EXTT0=
EXTT1=
EXTT2=
EXTT3=
EXTT4=
EXTT5=
EXTT6=
EXTT7=
EXTT8=
EXTT9=
EXTT10=
EXTT11=
EXTT12=
EXTT13=
EXTT14=
EXTT15=
PLAYORDER=
